PathFileType	4	(X/Y/Z)	OpenSim_Sub06_CSBaseline_Gyro.trc
DataRate	CameraRate	NumFrames	NumMarkers	Units	OrigDataRate	OrigDataStartFrame	OrigNumFrames
100	100	20	8	m	100	5308	8492
Frame#	Time	torso_imu_offset_imu	pelvis_imu_offset_imu	tibia_r_imu_offset_imu	femur_r_imu_offset_imu	tibia_l_imu_offset_imu	femur_l_imu_offset_imu	toes_r_imu_offset_imu	toes_l_imu_offset_imu
				X1	Y1	Z1	X2	Y2	Z2	X3	Y3	Z3	X4	Y4	Z4	X5	Y5	Z5	X6	Y6	Z6	X7	Y7	Z7	X8		Y8	Z8	

5308	53.07000000	0.51065740	0.44465356	0.11308458	-0.04779441	-0.00734467	0.00063711	4.08295021	-0.96886485	-1.27756438	-0.61234309	-0.13153089	-1.49238712	1.20025157	-0.52820954	3.07185292	0.62660125	1.38732572	-2.48637031	-0.34942475	-0.24594394	0.29982793	-0.58888429	-5.41330996	1.76432654
5309	53.08000000	0.59943394	0.47744992	0.21256549	0.27227362	-0.11638100	0.01582473	2.46979086	-1.05070022	-0.87325250	-1.29547706	-0.21232617	-1.53038591	1.55082175	-0.15290189	3.01197806	0.72425069	1.44917881	-2.71636839	-0.22529851	-0.15806605	0.14121802	-0.43818981	-5.71459807	1.77477381
5310	53.09000000	0.69903897	0.42139727	0.32134582	0.55459782	-0.08042446	0.12389576	1.83894491	-0.40425573	-0.24101367	-1.63991292	-0.51924803	-1.13843740	1.51591407	0.08481611	2.93140658	0.54262927	1.40088571	-2.71235131	-0.20264263	-0.04223116	0.02040266	0.46713161	-5.81549590	1.67988274
5311	53.10000000	0.85148969	0.31447252	0.36400541	0.79983335	0.00405252	0.30690093	1.59159278	-0.14632253	0.09894083	-1.53235486	-0.97871444	-0.76522731	1.44756400	0.00581048	2.65685170	0.23553329	1.25468646	-2.56027769	0.10369116	0.05390331	-0.15608013	0.66828660	-5.84754748	1.70019228
5312	53.11000000	1.01796339	0.22997431	0.38915481	0.96445568	0.05620218	0.44652879	0.77794966	-0.44557920	-0.15200499	-1.05814477	-1.12665121	-0.45419339	1.53354502	-0.26506386	2.16087446	0.02945352	1.07398476	-2.37040808	0.06894627	0.07798005	-0.25055958	1.16052812	-5.73322001	1.94373698
5313	53.12000000	1.10645662	0.16035741	0.39523664	1.09058351	0.08597827	0.48445346	-0.56064176	-0.76134995	-0.66174295	-0.31379005	-0.77445451	-0.61627817	1.64995092	-0.45261544	1.59961530	-0.00185128	0.87109197	-2.18034385	0.11146016	0.08939981	-0.31343113	1.31271629	-5.59747134	2.18886122
5314	53.13000000	1.07108262	0.11379354	0.38685254	1.16490022	0.07587333	0.48815099	-1.36026413	-0.55266123	-0.88642263	0.43383985	-0.32870285	-1.31150662	1.52431810	-0.37246845	1.03258807	0.03169206	0.67862390	-2.01469198	0.13591436	0.02257321	-0.34182408	1.36108255	-5.29745917	2.23435337
5315	53.14000000	1.02854463	0.05852332	0.37514164	1.11915894	0.06056488	0.46192602	-1.65156296	-0.10901072	-0.74749526	0.75094895	-0.25426633	-1.62058568	1.22026428	-0.11073320	0.59606906	0.17854836	0.51506845	-1.89798710	0.10300829	-0.02379985	-0.29515968	2.00689053	-4.57126365	2.11101302
5316	53.15000000	1.03895594	-0.00795499	0.37848865	0.92326670	0.09607394	0.38910855	-1.59699556	0.06391720	-0.57908361	0.78497540	-0.38796499	-1.44715091	0.80022652	0.11244601	0.39924832	0.40931600	0.41062060	-1.92317312	0.09552396	-0.09452777	-0.26539214	1.08712627	-2.85829231	2.01862890
5317	53.16000000	1.03775084	-0.06912749	0.40172104	0.69501093	0.17013235	0.26747543	-1.01719043	-0.01812905	-0.45980185	0.97374598	-0.50916702	-1.17333715	0.39333587	0.07811405	0.37715244	0.59502250	0.38985592	-1.99312219	0.10001949	-0.14584613	-0.24679414	0.32935400	2.12333817	0.45268314
5318	53.17000000	1.06910905	-0.12102456	0.43337819	0.60621376	0.24025371	0.13395655	-0.12258917	-0.10417896	-0.49116577	1.30485403	-0.51497157	-0.99522650	0.08416410	-0.14377591	0.47189758	0.68420051	0.36557405	-2.09790201	0.06965263	-0.18447729	-0.21536905	0.33613379	4.58528415	-0.60535056
5319	53.18000000	1.14825898	-0.18497997	0.45953551	0.65150211	0.28278038	-0.02287165	0.76500465	-0.14504626	-0.64125512	1.48128982	-0.42415797	-0.99123746	0.10571152	-0.46723141	0.36605470	0.71960359	0.27522671	-2.17412813	0.06918326	-0.22689834	-0.18549919	0.08415403	3.55591103	-0.50065039
5320	53.19000000	1.22377963	-0.22745637	0.47763502	0.76126056	0.28528040	-0.18976927	1.39422204	-0.16097657	-0.73574351	1.35365525	-0.30902521	-1.05074352	0.47275476	-0.68391340	-0.05280630	0.63938541	0.15367580	-2.17248311	0.08081093	-0.25852058	-0.16186870	-0.47442028	2.76900014	-0.44344755
5321	53.20000000	1.26696049	-0.20560338	0.47627883	0.87911743	0.27142977	-0.26777800	1.61672780	-0.19463699	-0.66693649	0.89553181	-0.27280919	-1.08115685	0.77638585	-0.73318831	-0.64558671	0.58431504	0.00994604	-2.07104125	0.07107041	-0.28076317	-0.15833746	0.10954321	2.72628164	-0.66692097
5322	53.21000000	1.30123442	-0.17580489	0.46595859	0.93256112	0.23960833	-0.32577460	1.59989945	-0.19323041	-0.49987724	0.26181431	-0.35583849	-1.06808668	0.76016417	-0.65403946	-1.21612504	0.38198393	-0.15948777	-1.88735239	0.08851998	-0.29022543	-0.15919828	0.48553977	3.02218289	-0.94137122
5323	53.22000000	1.36850283	-0.18456623	0.42410693	0.93967302	0.22537197	-0.32291939	1.34464000	-0.12480256	-0.40305266	-0.26577678	-0.46275464	-1.05592346	0.46499146	-0.48729430	-1.69159190	0.30914416	-0.20969764	-1.73379003	0.11861143	-0.30305247	-0.18120245	0.87198727	3.53223036	-1.11539185
5324	53.23000000	1.37222389	-0.20631730	0.36567520	0.88816300	0.23156821	-0.30982806	0.82584859	-0.05932850	-0.42166947	-0.54209640	-0.46331199	-1.07381893	-0.06010454	-0.31772741	-2.09834884	0.24521137	-0.12705544	-1.61991428	0.10451439	-0.29046969	-0.19641405	1.04245733	3.88874788	-1.09178123
5325	53.24000000	1.35079145	-0.19668876	0.31980818	0.81691646	0.22914366	-0.28998509	0.24241514	-0.04959082	-0.50522951	-0.63221443	-0.38984882	-1.04023397	-0.68867177	-0.23522014	-2.53524697	0.15256709	-0.02495127	-1.52665154	0.09167627	-0.30042634	-0.22287032	1.20563175	3.90925292	-0.89694552
5326	53.25000000	1.31553002	-0.17971898	0.30195882	0.74207568	0.19156142	-0.29995552	-0.28097974	-0.03710413	-0.56850058	-0.66250889	-0.28911482	-0.95827189	-1.10117503	-0.28573561	-2.90486151	0.35319006	0.09975289	-1.46902947	0.09273083	-0.31501367	-0.25874167	1.37173667	3.83189606	-0.64830013
5327	53.26000000	1.27543252	-0.18015336	0.29905828	0.69588225	0.15056384	-0.24469517	-0.66838306	0.00368600	-0.55782487	-0.71835141	-0.20594029	-0.89352158	-1.04799755	-0.45722972	-3.12899414	0.20679862	0.14008891	-1.32955484	0.08993093	-0.31991100	-0.30934925	1.57066888	3.81367495	-0.48714319
